<mxfile host="app.diagrams.net" modified="2022-05-06T05:53:43.705Z" agent="5.0 (Windows NT 10.0; Win64; x64) AppleWebKit/537.36 (KHTML, like Gecko) Chrome/101.0.4951.41 Safari/537.36 Edg/101.0.1210.32" etag="cWvYcV8Qp7YlKLlW3MB7" version="18.0.0" type="github">
  <diagram id="-PgIiMgAz_Ti-pHeAzUT" name="Page-1">
    <mxGraphModel dx="1038" dy="579" grid="1" gridSize="10" guides="1" tooltips="1" connect="1" arrows="1" fold="1" page="1" pageScale="1" pageWidth="850" pageHeight="1100" math="0" shadow="0">
      <root>
        <mxCell id="0" />
        <mxCell id="1" parent="0" />
        <mxCell id="Nlq6FdXmpg7_X0lPVQio-3" value="" style="edgeStyle=orthogonalEdgeStyle;rounded=0;orthogonalLoop=1;jettySize=auto;html=1;" edge="1" parent="1" source="Nlq6FdXmpg7_X0lPVQio-1" target="Nlq6FdXmpg7_X0lPVQio-2">
          <mxGeometry relative="1" as="geometry" />
        </mxCell>
        <mxCell id="Nlq6FdXmpg7_X0lPVQio-1" value="start" style="rounded=1;whiteSpace=wrap;html=1;" vertex="1" parent="1">
          <mxGeometry x="45" y="50" width="90" height="20" as="geometry" />
        </mxCell>
        <mxCell id="Nlq6FdXmpg7_X0lPVQio-5" value="" style="edgeStyle=orthogonalEdgeStyle;rounded=0;orthogonalLoop=1;jettySize=auto;html=1;" edge="1" parent="1" source="Nlq6FdXmpg7_X0lPVQio-2" target="Nlq6FdXmpg7_X0lPVQio-4">
          <mxGeometry relative="1" as="geometry" />
        </mxCell>
        <mxCell id="Nlq6FdXmpg7_X0lPVQio-2" value="set the index 1" style="rounded=0;whiteSpace=wrap;html=1;" vertex="1" parent="1">
          <mxGeometry x="30" y="110" width="120" height="60" as="geometry" />
        </mxCell>
        <mxCell id="Nlq6FdXmpg7_X0lPVQio-4" value="IF index&amp;lt; path length" style="rhombus;whiteSpace=wrap;html=1;rounded=0;" vertex="1" parent="1">
          <mxGeometry x="50" y="210" width="80" height="80" as="geometry" />
        </mxCell>
      </root>
    </mxGraphModel>
  </diagram>
</mxfile>
